<svg xmlns="http://www.w3.org/2000/svg" width="171.61" height="41.2" viewBox="0 0 45.405 10.901"><path d="M4.34 4.268s.007-.831.523-1.347 1.347-.524 1.347-.524-.008.83-.524 1.347c-.516.516-1.347.524-1.347.524zM4.117 2.646s.582-.593.582-1.323S4.117 0 4.117 0s-.582.593-.582 1.323.582 1.323.582 1.323zM4.34 6.482s.007-.83.523-1.346c.516-.516 1.347-.524 1.347-.524s-.008.83-.524 1.346c-.516.516-1.347.524-1.347.524zM4.34 8.768s.007-.83.523-1.346c.516-.516 1.347-.524 1.347-.524s-.008.83-.524 1.346c-.516.516-1.347.524-1.347.524z" fill="#f47a21"/><path d="M6.305 3.675a3.635 3.635 0 11-4.358-.016l-.108-.304A4.115 4.115 0 004.117 10.9 4.118 4.118 0 006.37 3.339z" fill="#f47a21"/><path d="M3.99 3.31l-1.87-.987.036 1.035 1.228.717v.55l.606.299V3.31zM3.99 5.318l-1.87-.987.036 1.035 1.228.717v.55l.606.3V5.317zM3.99 7.395l-1.87-.987.036 1.035 1.228.717v2.13l.606.299V7.395z" fill="#f47a21"/><path d="M13.772 6.12v1.608c-.413.293-.892.438-1.44.438a2.56 2.56 0 01-.91-.153 2.036 2.036 0 01-.696-.427 1.873 1.873 0 01-.444-.656 2.194 2.194 0 01-.156-.836c0-.306.05-.586.15-.841.101-.256.244-.473.429-.656.185-.183.41-.325.675-.425.262-.1.558-.15.886-.15a2.486 2.486 0 01.865.142 1.892 1.892 0 01.625.38l-.193.3a.19.19 0 01-.12.086c-.047.01-.1 0-.156-.035l-.177-.102a1.61 1.61 0 00-.214-.1 1.416 1.416 0 00-.28-.075 2.147 2.147 0 00-.374-.03c-.22 0-.415.036-.592.106a1.28 1.28 0 00-.45.3c-.125.132-.22.288-.289.476-.066.186-.1.393-.1.624 0 .242.034.46.106.65.071.191.172.352.301.484.13.132.289.234.474.304.185.07.392.105.62.105a1.78 1.78 0 00.846-.205v-.806h-.58c-.045 0-.08-.01-.103-.035a.125.125 0 01-.037-.091v-.374h1.334zM14.994 5.78c.093-.183.204-.326.333-.43a.72.72 0 01.469-.156c.063 0 .121.008.177.021a.475.475 0 01.15.065l-.042.456c-.007.033-.018.054-.037.068-.015.013-.037.018-.063.018a.705.705 0 01-.124-.016.863.863 0 00-.17-.016.652.652 0 00-.227.038.525.525 0 00-.178.107.692.692 0 00-.14.172c-.04.068-.077.146-.111.232v1.787h-.62V5.25h.36c.067 0 .112.01.136.035a.233.233 0 01.053.124zM16.42 5.645c.33-.304.728-.454 1.185-.454.17 0 .32.027.45.08a.91.91 0 01.535.576c.047.134.071.282.071.446V8.12h-.275a.255.255 0 01-.135-.027c-.032-.02-.056-.054-.077-.108l-.06-.234a3.212 3.212 0 01-.223.178 1.2 1.2 0 01-.476.212c-.09.019-.188.027-.296.027-.12 0-.23-.016-.334-.048a.68.68 0 01-.445-.387.839.839 0 01-.063-.34c0-.11.03-.217.09-.324a.833.833 0 01.3-.283c.14-.083.322-.153.55-.207.227-.053.507-.086.84-.094v-.19c0-.207-.044-.36-.134-.463-.09-.102-.222-.153-.397-.153-.12 0-.22.013-.299.043-.08.03-.15.062-.209.094l-.159.094a.265.265 0 01-.148.043.18.18 0 01-.108-.032.268.268 0 01-.074-.08zm1.64 1.218c-.22.008-.407.024-.558.05a1.54 1.54 0 00-.368.106.485.485 0 00-.203.15.315.315 0 00-.061.19c0 .068.01.127.034.173a.292.292 0 00.093.118c.04.032.085.054.137.067a.904.904 0 00.59-.067c.117-.059.23-.145.34-.258v-.53zM19.963 5.626a1.693 1.693 0 01.415-.306 1.172 1.172 0 01.527-.121c.161 0 .301.027.426.078a.837.837 0 01.307.223.96.96 0 01.187.344c.043.134.064.282.064.443v1.83h-.617v-1.83c0-.193-.044-.344-.137-.451-.09-.108-.23-.161-.415-.161a.811.811 0 00-.384.094c-.12.061-.228.147-.333.252v2.094h-.62V5.24h.373c.085 0 .138.038.162.116zM22.542 5.645c.331-.304.728-.454 1.186-.454.17 0 .32.027.45.08a.91.91 0 01.534.576c.048.134.072.282.072.446V8.12h-.276a.255.255 0 01-.135-.027c-.031-.02-.055-.054-.076-.108l-.061-.234a3.211 3.211 0 01-.222.178 1.2 1.2 0 01-.476.212c-.09.019-.189.027-.297.027-.12 0-.23-.016-.333-.048a.68.68 0 01-.445-.387.839.839 0 01-.063-.34c0-.11.029-.217.09-.324a.833.833 0 01.299-.283c.14-.083.322-.153.55-.207.227-.053.508-.086.841-.094v-.19c0-.207-.045-.36-.135-.463-.09-.102-.222-.153-.397-.153-.119 0-.22.013-.299.043-.079.03-.15.062-.209.094l-.158.094a.265.265 0 01-.148.043.18.18 0 01-.109-.032.268.268 0 01-.074-.08zm1.644 1.218c-.22.008-.408.024-.559.05a1.54 1.54 0 00-.367.106.485.485 0 00-.204.15.315.315 0 00-.061.19c0 .068.01.127.034.173a.292.292 0 00.093.118c.04.032.085.054.138.067a.904.904 0 00.59-.067c.116-.059.23-.145.338-.258v-.53zM26.093 5.78c.093-.183.204-.326.334-.43a.72.72 0 01.468-.156c.063 0 .122.008.177.021a.475.475 0 01.151.065l-.042.456c-.008.033-.019.054-.037.068-.016.013-.037.018-.064.018a.705.705 0 01-.124-.016.863.863 0 00-.17-.016.652.652 0 00-.227.038.525.525 0 00-.177.107.692.692 0 00-.14.172c-.04.068-.077.146-.112.232v1.787h-.619V5.25h.36c.066 0 .111.01.135.035a.233.233 0 01.053.124zM30.24 5.245l-1.62 3.693a.31.31 0 01-.077.102c-.029.024-.074.037-.137.037h-.458l.542-1.15-1.198-2.68h.54c.052 0 .092.011.119.035.029.024.047.051.06.084l.699 1.631c.018.046.034.094.048.14.013.045.029.094.042.142.016-.048.032-.097.045-.142.016-.046.032-.094.053-.14l.672-1.629a.175.175 0 01.069-.083.185.185 0 01.105-.035h.495zM30.668 7.903a.27.27 0 01.077-.186.266.266 0 01.378 0 .26.26 0 01.058.288.224.224 0 01-.058.08.217.217 0 01-.085.054.261.261 0 01-.103.02.253.253 0 01-.188-.076.217.217 0 01-.08-.18zM33.652 5.664c-.016.027-.037.04-.066.04-.021 0-.047-.01-.08-.035-.03-.024-.076-.048-.129-.078a1.025 1.025 0 00-.497-.113.858.858 0 00-.283.043.744.744 0 00-.22.116.531.531 0 00-.14.17.456.456 0 00-.05.204c0 .088.023.16.068.22.045.06.106.107.18.15.074.04.159.078.254.108l.291.091c.098.03.196.065.294.1.095.037.18.083.254.137a.57.57 0 01.249.486.862.862 0 01-.066.342.791.791 0 01-.194.274.932.932 0 01-.314.183 1.24 1.24 0 01-.43.067 1.33 1.33 0 01-.52-.094 1.45 1.45 0 01-.392-.248l.064-.096a.107.107 0 01.034-.035.093.093 0 01.05-.011c.024 0 .056.016.09.046a1.148 1.148 0 00.362.194c.088.029.197.045.324.045a.968.968 0 00.32-.048.648.648 0 00.23-.135.577.577 0 00.188-.44.388.388 0 00-.07-.234.562.562 0 00-.182-.16 1.235 1.235 0 00-.254-.11c-.095-.029-.193-.058-.29-.09-.101-.03-.2-.062-.292-.1a1.043 1.043 0 01-.254-.134.685.685 0 01-.182-.2.577.577 0 01-.07-.292c0-.1.022-.197.067-.288a.745.745 0 01.188-.242.947.947 0 01.299-.166c.116-.04.249-.062.394-.062.175 0 .33.024.466.072.135.049.26.124.37.226zM34.79 5.82c.127-.17.275-.304.445-.403.169-.1.36-.151.571-.151.352 0 .624.118.823.358.196.239.296.596.296 1.075 0 .204-.026.395-.082.572a1.39 1.39 0 01-.24.462 1.138 1.138 0 01-.927.422c-.193 0-.362-.035-.502-.104a1.033 1.033 0 01-.368-.307v1.368h-.275V5.317h.153c.048 0 .077.024.085.07zm.01 1.688c.056.08.114.147.175.204a.813.813 0 00.405.21c.077.016.156.021.24.021.17 0 .318-.03.445-.091a.847.847 0 00.318-.256c.085-.11.15-.242.193-.395.042-.153.063-.322.063-.505 0-.417-.079-.723-.235-.92-.159-.195-.384-.295-.677-.295a.969.969 0 00-.516.143 1.46 1.46 0 00-.413.4v1.484zM37.621 5.712c.15-.148.307-.258.471-.333.164-.075.352-.113.561-.113.153 0 .288.024.402.073a.707.707 0 01.286.207.883.883 0 01.172.325c.04.126.058.269.058.424v1.828h-.108c-.059 0-.093-.027-.106-.078l-.04-.36c-.08.075-.156.142-.235.204-.077.06-.16.11-.244.153-.084.04-.174.073-.272.097a1.505 1.505 0 01-.323.035.932.932 0 01-.286-.043.72.72 0 01-.246-.129.626.626 0 01-.172-.223.778.778 0 01-.063-.328.58.58 0 01.103-.33.837.837 0 01.325-.266 2.2 2.2 0 01.57-.18c.23-.046.507-.073.833-.079v-.292c0-.259-.059-.46-.172-.6-.114-.14-.284-.21-.508-.21a.968.968 0 00-.352.057c-.096.038-.18.078-.246.124a1.772 1.772 0 00-.164.123c-.043.038-.077.057-.106.057a.11.11 0 01-.053-.014.117.117 0 01-.035-.037zm1.683 1.054c-.273.01-.508.03-.704.064-.196.033-.36.078-.487.135a.725.725 0 00-.283.201.422.422 0 00-.092.266c0 .094.015.175.047.245s.074.126.127.17a.5.5 0 00.183.096c.068.022.14.032.217.032a1.155 1.155 0 00.788-.285c.069-.059.138-.12.204-.188zM42.413 5.69c-.01.011-.019.017-.027.025a.067.067 0 01-.037.01c-.018 0-.045-.013-.077-.037a.993.993 0 00-.34-.167 1.11 1.11 0 00-.305-.037c-.164 0-.312.03-.44.086a.864.864 0 00-.322.247 1.104 1.104 0 00-.201.39 1.81 1.81 0 00-.069.513c0 .196.024.371.071.524.048.153.114.28.202.385.087.104.19.182.314.239.122.054.26.08.41.08a1.069 1.069 0 00.577-.153.917.917 0 00.143-.105c.035-.032.064-.048.087-.048.024 0 .043.01.059.03l.071.091a.866.866 0 01-.167.159 1.092 1.092 0 01-.227.126 1.433 1.433 0 01-.275.083c-.098.019-.201.03-.31.03-.182 0-.35-.032-.5-.097a1.072 1.072 0 01-.389-.282 1.33 1.33 0 01-.254-.452 1.882 1.882 0 01-.09-.61c0-.215.03-.408.088-.586.058-.177.142-.328.254-.457.11-.129.246-.225.407-.298a1.37 1.37 0 01.55-.105 1.23 1.23 0 01.87.325zM43.246 6.607v.054c0 .21.024.395.074.556.05.159.122.293.215.4a.915.915 0 00.333.245c.13.054.275.081.436.081.143 0 .27-.016.374-.046a1.434 1.434 0 00.439-.21c.042-.032.074-.045.092-.045a.07.07 0 01.059.03l.074.091a.727.727 0 01-.183.159 1.407 1.407 0 01-.254.126 1.95 1.95 0 01-.299.083 1.619 1.619 0 01-.32.032c-.196 0-.373-.032-.535-.099a1.14 1.14 0 01-.415-.293 1.375 1.375 0 01-.267-.47 1.96 1.96 0 01-.093-.635c0-.201.03-.387.088-.556.058-.17.142-.317.254-.44a1.13 1.13 0 01.404-.288c.162-.07.342-.105.545-.105.162 0 .31.027.45.08a1 1 0 01.36.24c.1.104.183.234.24.384.059.153.088.328.088.524 0 .04-.005.07-.018.083-.011.017-.032.022-.059.022h-2.082zm1.91-.172c0-.15-.02-.285-.066-.403a.817.817 0 00-.463-.495 1.08 1.08 0 00-.754 0 .897.897 0 00-.51.498c-.053.118-.088.25-.104.398h1.897z" fill="#3a4649"/></svg>