<svg xmlns="http://www.w3.org/2000/svg" width="568.862" height="163.912" viewBox="0 0 150.511 43.368"><g fill="none"><g fill="#3a4649"><path d="M54.462 23.43v7.999c-1.673.8-3.608 1.196-5.821 1.196-2.483 0-4.508-.756-6.082-2.267-1.566-1.512-2.358-3.473-2.358-5.885 0-2.429.792-4.372 2.367-5.848 1.574-1.476 3.58-2.213 6-2.213 1.189 0 2.304.17 3.348.521 1.035.351 1.88.82 2.52 1.413l-1.9 2.052c-.404-.45-.962-.828-1.673-1.125a5.826 5.826 0 00-2.267-.45c-1.602 0-2.888.54-3.878 1.61-.99 1.071-1.485 2.42-1.485 4.031 0 1.674.495 3.033 1.494 4.094.999 1.062 2.33 1.593 3.995 1.593 1.179 0 2.204-.18 3.068-.549v-3.923h-3.248v-2.267h5.92zM57.665 32.23V21.773h2.502v1.746h.045a3.61 3.61 0 011.241-1.494 3.137 3.137 0 011.809-.558c.243 0 .459.018.63.063v2.394a3.35 3.35 0 00-.81-.108c-.45 0-.846.072-1.197.216-.35.144-.62.323-.818.548-.198.216-.36.46-.477.73-.126.27-.207.512-.252.728a2.882 2.882 0 00-.063.585v5.596h-2.61zM71.81 32.23v-1.332h-.063c-.261.468-.684.846-1.278 1.142a4.292 4.292 0 01-1.97.45c-1 0-1.908-.26-2.709-.792-.81-.53-1.205-1.35-1.205-2.447 0-.594.153-1.116.45-1.556a3.17 3.17 0 011.124-1.035c.45-.243 1.017-.45 1.692-.603a13.1 13.1 0 011.916-.297 27.47 27.47 0 012.016-.063v-.26c0-.613-.225-1.08-.675-1.413-.45-.333-1.026-.504-1.719-.504-1.106 0-2.051.396-2.852 1.196l-1.35-1.592c1.188-1.107 2.664-1.656 4.427-1.656.9 0 1.665.126 2.295.378.63.252 1.115.603 1.448 1.044.333.44.567.909.711 1.394.135.486.207 1.017.207 1.584v6.361zm-.045-4.4v-.37h-.585c-2.654 0-3.986.586-3.986 1.746 0 .468.18.801.53.999.36.207.793.306 1.296.306.882 0 1.566-.234 2.034-.711.477-.468.71-1.125.71-1.97zM77.451 19.318c-.324-.315-.477-.675-.477-1.098 0-.423.162-.792.477-1.098.315-.315.711-.467 1.179-.467.477 0 .882.152 1.206.45.324.296.485.674.485 1.124 0 .45-.161.828-.485 1.125-.324.297-.73.45-1.206.45-.468-.018-.855-.171-1.179-.486zm-.108 12.911V21.774h2.619V32.23zM83.138 32.23V21.773h2.483v1.674h.045c.243-.55.666-1.017 1.25-1.404.586-.387 1.251-.576 1.998-.576 1.278 0 2.24.414 2.888 1.233.648.819.973 1.817.973 2.996v6.541h-2.62v-5.794c0-1.863-.656-2.79-1.96-2.79-.783 0-1.386.28-1.81.837-.422.558-.629 1.224-.629 1.998v5.75h-2.618z"/><g><path d="M108.07 28.963l1.224.783c-.55.846-1.323 1.53-2.321 2.07-1 .54-2.151.81-3.456.81-2.321 0-4.247-.766-5.767-2.295-1.521-1.53-2.276-3.464-2.276-5.804 0-2.339.764-4.273 2.285-5.803 1.53-1.53 3.446-2.294 5.75-2.294 1.133 0 2.195.224 3.194.665.998.441 1.763 1.035 2.293 1.773l-1.304.963c-.36-.55-.918-1.026-1.665-1.43a5.257 5.257 0 00-2.492-.604c-1.934 0-3.482.657-4.652 1.962-1.17 1.304-1.754 2.897-1.754 4.768 0 1.872.585 3.465 1.763 4.77 1.179 1.304 2.727 1.96 4.643 1.96 2.007-.008 3.518-.773 4.535-2.294zM113.424 23.709h.044c.261-.585.72-1.053 1.36-1.404a4.16 4.16 0 012.06-.53c1.259 0 2.222.377 2.888 1.133.657.756.99 1.781.99 3.068v6.253h-1.485v-5.641c0-1.152-.206-2.034-.621-2.645-.414-.621-1.133-.927-2.15-.927-.855 0-1.584.342-2.186 1.035-.604.692-.91 1.673-.91 2.95v5.228h-1.484V15.755h1.485v7.954zM131.032 25.976v-.324c0-1.754-.91-2.636-2.727-2.636-1.223 0-2.23.396-3.031 1.197l-.829-.981c.973-.972 2.313-1.458 4.013-1.458 1.16 0 2.115.324 2.852.963.738.639 1.116 1.557 1.116 2.744v4.463c0 .918.054 1.674.171 2.285h-1.331a9.915 9.915 0 01-.153-1.655h-.045c-.882 1.277-2.124 1.916-3.707 1.916-.918 0-1.737-.26-2.447-.773-.72-.513-1.08-1.287-1.08-2.322 0-.504.09-.954.26-1.34.172-.387.433-.702.784-.945a5.24 5.24 0 011.133-.603c.405-.153.909-.27 1.503-.351a16.863 16.863 0 011.664-.153c.531-.018 1.143-.027 1.854-.027zm0 1.152h-.432c-.702 0-1.322.027-1.863.072-.549.054-1.088.153-1.637.297-.55.144-.972.369-1.278.674-.306.306-.459.693-.459 1.152 0 .666.234 1.16.693 1.467.468.315 1.035.468 1.7.468 1 0 1.8-.324 2.385-.981.585-.657.882-1.449.882-2.393v-.756zM137.735 17.374c.207.207.315.45.315.738s-.108.54-.315.738a.991.991 0 01-.728.306.992.992 0 01-.73-.306 1.006 1.006 0 01-.315-.738c0-.288.108-.54.316-.738a.992.992 0 01.729-.306c.27 0 .513.1.728.306zm.009 4.661V32.23h-1.484V22.035zM141.604 22.035h1.412c.055.729.09 1.305.09 1.746h.045c.28-.585.747-1.062 1.404-1.44a4.13 4.13 0 012.078-.567c1.26 0 2.223.378 2.89 1.134.656.756.988 1.781.988 3.068v6.253h-1.484v-5.641c0-1.152-.207-2.034-.62-2.645-.414-.621-1.135-.927-2.152-.927-.854 0-1.583.342-2.186 1.035-.602.692-.909 1.673-.909 2.95v5.228h-1.484v-7.953c.01-.873-.018-1.62-.072-2.24z"/></g></g><g fill="#f47a21"><path d="M17.266 16.978s.027-3.302 2.088-5.353c2.051-2.052 5.353-2.088 5.353-2.088s-.027 3.303-2.087 5.354-5.354 2.087-5.354 2.087zM16.376 10.527s2.312-2.357 2.312-5.263C18.688 2.357 16.376 0 16.376 0s-2.313 2.357-2.313 5.264c0 2.906 2.313 5.263 2.313 5.263zM17.266 25.796s.027-3.302 2.088-5.354c2.051-2.05 5.353-2.087 5.353-2.087s-.027 3.302-2.087 5.354c-2.052 2.051-5.354 2.087-5.354 2.087zM17.266 34.884s.027-3.302 2.088-5.354c2.051-2.051 5.353-2.087 5.353-2.087s-.027 3.302-2.087 5.353c-2.052 2.06-5.354 2.088-5.354 2.088z"/><path d="M25.085 14.612a14.426 14.426 0 015.759 11.553c0 7.99-6.479 14.468-14.468 14.468-7.99 0-14.469-6.478-14.469-14.468 0-4.75 2.295-8.97 5.83-11.607l-.43-1.206A16.346 16.346 0 000 26.992c0 9.043 7.333 16.376 16.376 16.376 9.042 0 16.375-7.333 16.375-16.375 0-5.732-2.951-10.78-7.414-13.704z"/><path d="M15.872 13.163L8.43 9.24l.144 4.121 4.885 2.862v2.195l2.412 1.197v-6.452zM15.872 21.153L8.43 17.23l.144 4.112 4.885 2.862v2.195l2.412 1.197v-6.443zM15.872 29.422L8.43 25.5l.144 4.112 4.885 2.861v8.476l2.412 1.197V29.422z"/></g></g></svg>